<svg xmlns="http://www.w3.org/2000/svg" width="200" height="200" viewBox="0 0 200 200">
  <title>hero-cap5_1</title>
  <g>
    <g>
      <path d="M100,199a99,99,0,1,1,99-99A99.11,99.11,0,0,1,100,199Z" style="fill: #fff"/>
      <path d="M100,2A98,98,0,1,1,2,100,98.11,98.11,0,0,1,100,2m0-2A100,100,0,1,0,200,100,100,100,0,0,0,100,0Z" style="fill: #323c64"/>
    </g>
    <g>
      <circle cx="100" cy="100" r="75.7" style="fill: #1ccfc9"/>
      <circle cx="100" cy="100" r="75.7" style="fill: none;stroke: #323c64;stroke-miterlimit: 10;stroke-width: 2px;stroke-dasharray: 7.432085037231445,7.432085037231445"/>
    </g>
    <path d="M24.3,100A75.7,75.7,0,0,1,100,24.3" style="fill: none;stroke: #323c64;stroke-miterlimit: 10;stroke-width: 3px"/>
    <path d="M175.7,100A75.7,75.7,0,0,1,100,175.7" style="fill: none;stroke: #323c64;stroke-miterlimit: 10;stroke-width: 3px"/>
    <g>
      <path d="M27.08,36.26a4.59,4.59,0,1,1,3.3-1.4A4.57,4.57,0,0,1,27.08,36.26Z" style="fill: #fff"/>
      <path d="M27.08,28.07h0a3.59,3.59,0,1,1-2.59,1.1,3.58,3.58,0,0,1,2.59-1.1m0-2A5.59,5.59,0,1,0,31,27.64a5.58,5.58,0,0,0-3.88-1.57Z" style="fill: #323c64"/>
    </g>
    <g>
      <path d="M170.55,174.73a4.59,4.59,0,1,1,3.31-1.4A4.57,4.57,0,0,1,170.55,174.73Z" style="fill: #fff"/>
      <path d="M170.55,166.54h0a3.59,3.59,0,1,1-2.59,1.1,3.58,3.58,0,0,1,2.59-1.1m0-2a5.59,5.59,0,1,0,3.88,1.57,5.58,5.58,0,0,0-3.88-1.57Z" style="fill: #323c64"/>
    </g>
    <circle cx="170.26" cy="29.57" r="5.59" transform="translate(30.75 131.54) rotate(-46.02)" style="fill: #323c64"/>
    <circle cx="31.79" cy="173.04" r="5.59" transform="translate(-114.79 75.75) rotate(-46.02)" style="fill: #323c64"/>
    <circle cx="24.3" cy="96.99" r="4" transform="translate(-62.36 47.12) rotate(-46.02)" style="fill: #323c64"/>
    <circle cx="175.7" cy="102.98" r="4" transform="translate(-20.41 157.89) rotate(-46.02)" style="fill: #323c64"/>
    <g>
      <rect x="66.68" y="78.71" width="66.63" height="56.22" rx="4.41" ry="4.41" style="fill: #fff;stroke: #323c64;stroke-linecap: round;stroke-linejoin: round;stroke-width: 2px"/>
      <path d="M118.37,78.71c-1.79-7.2-10.21-13.64-18-13.64s-16.17,7.24-18,13.64L89,80.85c1.4-4.8,5.37-9,11.41-9s10,4.16,11.41,9.77Z" style="fill: #dfe2e2;stroke: #323c64;stroke-linecap: round;stroke-linejoin: round;stroke-width: 2px"/>
      <path d="M117.72,78.71H128.9a4.43,4.43,0,0,1,4.41,4.41V92.3a4.43,4.43,0,0,1-4.41,4.41H71.1a4.43,4.43,0,0,1-4.41-4.41V83.12a4.43,4.43,0,0,1,4.41-4.41h46.63" style="fill: #ff931e;stroke: #323c64;stroke-linecap: round;stroke-linejoin: round;stroke-width: 2px"/>
      <polygon points="110.49 121.25 104.53 121.25 104.53 127.21 96.28 127.21 96.28 121.25 90.32 121.25 90.32 113 96.28 113 96.28 107.04 104.53 107.04 104.53 113 110.49 113 110.49 121.25" style="fill: #f42534;stroke: #323c64;stroke-linecap: round;stroke-linejoin: round;stroke-width: 2px"/>
      <rect x="96.44" y="89.2" width="7.92" height="14.34" rx="3.05" ry="3.05" transform="translate(196.77 -4.04) rotate(90)" style="fill: #3fa9f5;stroke: #323c64;stroke-linecap: round;stroke-linejoin: round;stroke-width: 2px"/>
    </g>
  </g>
</svg>
